<?xml version="1.0" encoding="utf-8"?>
<!-- Generator: Adobe Illustrator 16.0.0, SVG Export Plug-In . SVG Version: 6.00 Build 0)  -->
<!DOCTYPE svg PUBLIC "-//W3C//DTD SVG 1.1//EN" "http://www.w3.org/Graphics/SVG/1.1/DTD/svg11.dtd">
<svg version="1.1" id="Layer_1" xmlns="http://www.w3.org/2000/svg" xmlns:xlink="http://www.w3.org/1999/xlink" x="0px" y="0px"
	 width="60px" height="60px" viewBox="0 0 60 60" enable-background="new 0 0 60 60" xml:space="preserve">
<g>
	<path fill-rule="evenodd" clip-rule="evenodd" fill="#535353" d="M3.437,31.728c0.193-0.416,0.159-0.872,0.214-1.31
		c0.358-2.866,1.111-5.615,2.344-8.232c1.112-2.361,2.539-4.52,4.26-6.472c1.257-1.426,2.684-2.677,4.242-3.777
		c2.359-1.668,4.892-2.977,7.66-3.821c0.676-0.206,1.365-0.365,2.049-0.54c0.989-0.254,1.919-0.086,2.834,0.293
		c1.762,0.729,2.669,2.116,2.998,3.934c0.061,0.333,0.056,0.681-0.006,1.017c-0.183,0.981-0.556,1.875-1.219,2.64
		c-0.61,0.705-1.384,1.146-2.245,1.457c-0.666,0.241-1.35,0.419-2.029,0.613c-2.074,0.592-3.911,1.613-5.517,3.049
		c-0.292,0.262-0.631,0.467-0.904,0.753c-1.78,1.863-3.266,3.917-4.125,6.375c-0.469,1.341-0.734,2.725-0.887,4.135
		c-0.081,0.745-0.118,1.488-0.079,2.233c0.192,3.656,1.287,6.98,3.65,9.832c0.35,0.423,0.664,0.884,1.055,1.265
		c2.53,2.469,5.448,4.227,8.988,4.814c1.021,0.169,2.049,0.289,3.081,0.316c0.637,0.018,1.277-0.074,1.914-0.144
		c1.582-0.17,3.122-0.525,4.595-1.136c1.522-0.63,2.914-1.481,4.168-2.552c0.458-0.39,0.948-0.741,1.362-1.183
		c2.265-2.421,3.905-5.173,4.494-8.479c0.211-1.186,0.4-2.38,0.355-3.586c-0.099-2.645-0.6-5.198-1.91-7.537
		c-0.384-0.685-0.817-1.34-1.218-2.016c-0.329-0.554-0.56-1.149-0.731-1.772c-0.243-0.878-0.067-1.714,0.22-2.54
		c0.243-0.699,0.62-1.3,1.156-1.837c1.133-1.133,2.499-1.579,4.038-1.411c1.059,0.115,2.027,0.532,2.827,1.316
		c0.697,0.684,1.168,1.509,1.654,2.326c1.651,2.769,2.773,5.742,3.372,8.912c0.384,2.029,0.558,4.076,0.422,6.132
		c-0.224,3.384-0.982,6.645-2.416,9.735c-1.093,2.355-2.486,4.521-4.191,6.469c-1.338,1.528-2.848,2.884-4.522,4.051
		c-2.261,1.574-4.678,2.828-7.31,3.656c-1.639,0.516-3.312,0.873-5.017,1.085c-0.479,0.06-0.969,0.047-1.432,0.208
		c-1.073,0-2.146,0-3.22,0c-0.094-0.054-0.198-0.063-0.302-0.075c-0.583-0.071-1.167-0.14-1.75-0.219
		c-2.018-0.271-3.977-0.779-5.876-1.506c-2.273-0.871-4.371-2.063-6.338-3.494c-1.542-1.12-2.921-2.421-4.168-3.852
		c-1.197-1.373-2.221-2.876-3.115-4.466c-1.864-3.31-2.924-6.866-3.283-10.641c-0.019-0.195-0.033-0.392-0.141-0.565
		C3.437,34.031,3.437,32.88,3.437,31.728z"/>
	<path fill-rule="evenodd" clip-rule="evenodd" fill="#B8D433" d="M41.132,0c0.535,0.167,1.084,0.285,1.591,0.546
		c0.889,0.458,1.579,1.096,2.018,2.009c0.395,0.825,0.693,1.667,0.637,2.598c-0.103,1.709-0.848,3.054-2.31,3.967
		c-0.84,0.524-1.766,0.796-2.759,0.772c-2.47-0.06-4.49-1.939-4.742-4.255c-0.254-2.323,1.022-4.46,2.99-5.301
		c0.352-0.15,0.727-0.21,1.083-0.336C40.137,0,40.635,0,41.132,0z"/>
	<path fill-rule="evenodd" clip-rule="evenodd" fill="#B8D433" d="M35.61,13.806c0.329,0.013,0.642,0.002,0.955,0.051
		c1.094,0.171,1.911,0.791,2.641,1.574c0.678,0.728,1.06,1.584,1.143,2.566c0.078,0.91-0.049,1.8-0.331,2.669
		c-0.198,0.61-0.432,1.207-0.66,1.805c-0.941,2.455-1.872,4.914-2.819,7.367c-0.665,1.72-1.284,3.458-2.004,5.156
		c-0.158,0.374-0.328,0.744-0.546,1.086c-0.587,0.923-1.43,1.533-2.415,1.98c-0.487,0.222-1.007,0.279-1.515,0.382
		c-0.463,0.092-0.937-0.042-1.392-0.159c-0.328-0.085-0.646-0.212-0.968-0.321c-0.666-0.224-1.092-0.748-1.536-1.243
		c-0.951-1.062-1.226-2.34-1.131-3.718c0.033-0.469,0.201-0.919,0.333-1.37c0.344-1.182,0.775-2.333,1.235-3.475
		c1.119-2.779,2.167-5.584,3.218-8.389c0.44-1.177,0.951-2.324,1.478-3.464c0.197-0.429,0.502-0.76,0.845-1.068
		c0.749-0.673,1.552-1.243,2.588-1.384C35.026,13.811,35.326,13.82,35.61,13.806z"/>
</g>
</svg>
