<svg version="1.1" id="Layer_1" xmlns="http://www.w3.org/2000/svg" xmlns:xlink="http://www.w3.org/1999/xlink" x="0px" y="0px"
	 width="221.4px" height="60px" viewBox="389.3 105.5 221.4 60" style="enable-background:new 389.3 105.5 221.4 60;"
	 xml:space="preserve">
<style type="text/css">
	.st0{fill:none;}
	.st1{fill:#535353;}
	.st2{fill:#B7EB00;}
</style>
<g>
	<g>
		<path class="st0" d="M574.3,124.5c-4.1,0-8.2,0-12.3,0c-0.6,0-0.6,0-0.6,0.6c0,3.2,0,6.4,0,9.6c0,0.4,0,0.9,0.1,1.3
			c0.1,1.2,0.4,2.4,0.9,3.6c0.7,1.6,1.7,2.9,3.2,3.8c1.7,1,3.6,1.5,5.6,1.6c0.7,0,1.4,0,2.1,0c4.5,0,8.9,0,13.4,0
			c0.4,0,0.5,0,0.5-0.4c0,0,0-0.1,0-0.1c0-1.3,0-2.5,0-3.8c0-0.1,0-0.2,0-0.3c0-0.2-0.1-0.2-0.2-0.3c-0.2,0-0.4,0-0.6,0
			c-1.8,0-3.6,0-5.5,0c-2.5,0-5,0.1-7.5,0c-1.1,0-2.1,0-3.2-0.1c-1.5-0.2-2.7-0.9-3.3-2.4c-0.2-0.6-0.2-0.6,0.4-0.6
			c5.4,0,10.9,0,16.3,0c0.5,0,0.5,0,0.5-0.5c0-1.2,0-2.4,0-3.5c0-0.6,0-0.6-0.6-0.6c-5.5,0-11,0-16.4,0c-0.1,0-0.2,0-0.3,0
			c-0.2,0-0.3-0.1-0.3-0.3c0-0.7-0.1-1.4,0-2.1c0.1-0.6,0-0.6,0.7-0.6c6.5,0,13.1,0,19.6,0c0.5,0,0.5,0,0.5-0.5c0-1.3,0-2.5,0-3.8
			c0-0.5,0-0.5-0.6-0.5C582.5,124.5,578.4,124.5,574.3,124.5z"/>
		<path class="st0" d="M522.7,137c0.1-0.1,0.3-0.1,0.4-0.1c0.9-0.1,1.8-0.4,2.7-0.8c1.7-0.8,3-2,3.6-3.8c0.4-1.1,0.6-2.2,0.6-3.4
			c0-1.3,0-2.5,0-3.8c0-0.6,0-0.6-0.6-0.6c-8.6,0-17.2,0-25.8,0c-0.6,0-0.6,0-0.6,0.6c0,6.4,0,12.8,0,19.2c0,0.1,0,0.1,0,0.2
			c0,0.3,0,0.4,0.4,0.4c0.1,0,0.2,0,0.3,0c1.2,0,2.4,0,3.7,0c0.7,0,0.7,0,0.7-0.7c0-4.8,0-9.6,0-14.4c0-0.1,0-0.2,0-0.4
			c0-0.1,0.1-0.2,0.2-0.2c0.1,0,0.2,0,0.3,0c0.9,0,1.7,0,2.6,0c4.5,0,9,0,13.5,0c0.1,0,0.2,0,0.3,0c0.2,0,0.3,0.1,0.2,0.3
			c-0.2,0.9-0.6,1.7-1.4,2.2c-0.6,0.4-1.3,0.5-2,0.5c-3.6,0-7.2,0-10.9,0c-0.1,0-0.2,0-0.3,0c-0.2,0-0.3,0.1-0.3,0.3
			c0,0,0,0.1,0,0.1c0,1.3,0,2.6,0,3.8c0,0.4,0,0.4,0.4,0.4c0.1,0,0.2,0,0.3,0c1.7,0,3.3,0,5,0c0.3,0,0.5,0.1,0.8,0.3
			c2.4,2.4,4.8,4.8,7.2,7.3c0.2,0.2,0.4,0.3,0.7,0.3c1.7,0,3.4,0,5,0c0.1,0,0.3,0.1,0.4-0.1c0.1-0.2-0.1-0.2-0.2-0.3
			c-1.3-1.3-2.6-2.7-3.9-4c-1-1.1-2.1-2.1-3.1-3.2C522.9,137.2,522.7,137.2,522.7,137z"/>
		<path class="st0" d="M473.6,134.4c0,3.2,0,6.5,0,9.7c0,0.5,0,0.5,0.5,0.5c1.3,0,2.6,0,4,0c0.5,0,0.5,0,0.5-0.5c0-2.2,0-4.5,0-6.7
			c0-0.6,0-0.5,0.5-0.5c5.1,0,10.2,0,15.4,0c0.1,0,0.2,0,0.3,0c0.2,0,0.3,0,0.3,0.3c0,0.4,0.1,0.8,0,1.2c0,1.9,0,3.8,0,5.7
			c0,0.1,0,0.2,0,0.3c0,0.1,0.1,0.2,0.2,0.2c0.1,0,0.2,0,0.3,0c1.3,0,2.6,0,3.9,0c0.5,0,0.5,0,0.5-0.5c0-3.3,0-6.6,0-9.9
			c0-0.4,0-0.9-0.1-1.3c-0.2-1.5-0.6-2.9-1.3-4.2c-0.6-1.1-1.4-2-2.5-2.7c-1.8-1.2-3.8-1.7-5.9-1.7c-5.4,0-10.8,0-16.1,0
			c-0.5,0-0.5,0-0.5,0.5C473.6,128,473.6,131.2,473.6,134.4z"/>
		<path class="st0" d="M450.8,124.2c-3.3,0-6.7,0-10,0c-0.1,0-0.2,0-0.3,0c-0.2,0-0.3,0.1-0.3,0.3c0,0.1,0,0.1,0,0.2
			c0,6.5,0,13,0,19.4c0,0.5,0,0.5,0.5,0.5c1.3,0,2.7,0,4,0c0.1,0,0.2,0,0.2,0c0.1,0,0.2-0.1,0.2-0.2c0-0.1,0-0.1,0-0.2
			c0-2,0-4,0-5.9c0-2.9,0-5.7,0-8.6c0-0.1,0-0.2,0-0.3c0-0.1,0.1-0.2,0.2-0.2c0.1,0,0.2,0,0.2,0c4.6,0,9.2,0,13.8,0.1
			c0.6,0,1.2,0,1.8,0c0.2,0,0.3,0,0.5,0c0.6,0.1,1.1,0.3,1.7,0.5c0.4,0.1,0.8,0.3,1.1,0.7c0.6,0.7,1,1.5,1.2,2.4
			c0.1,0.8,0.1,1.6,0.1,2.3c0,2.4,0,4.8,0,7.2c0,0.6,0,1.3,0,1.9c0,0.3,0,0.3,0.3,0.3c0.1,0,0.2,0,0.2,0c1.3,0,2.6,0,3.9,0
			c0.6,0,0.6,0,0.6-0.6c0-3.4,0-6.7,0-10.1c0-1.5-0.3-2.9-0.9-4.3c-0.5-1.2-1.3-2.2-2.3-3.1c-0.9-0.7-1.9-1.3-2.9-1.6
			c-1.4-0.5-2.9-0.7-4.4-0.7C457.1,124.2,454,124.2,450.8,124.2z"/>
		<path class="st0" d="M551.3,132.7c0-0.1,0-0.2,0.1-0.2c0.9-1.1,1.8-2.2,2.8-3.2c1.1-1.2,2.1-2.4,3.2-3.6c0.3-0.3,0.5-0.6,0.8-0.9
			c0-0.1,0.1-0.1,0.1-0.2c0-0.1-0.1-0.1-0.2-0.1c0,0-0.1,0-0.1,0c-1.8,0-3.6,0-5.4,0c-0.2,0-0.4,0.1-0.5,0.2c-0.7,0.8-1.4,1.5-2,2.3
			c-1.5,1.7-2.9,3.3-4.4,5c-0.2,0.2-0.4,0.3-0.7,0.3c-2.2,0-4.5,0-6.7,0c-0.1,0-0.2,0-0.3,0c-0.2,0-0.2-0.1-0.2-0.2
			c0-0.1,0-0.2,0-0.4c0-2.3,0-4.5,0-6.8c0-0.4,0-0.4-0.4-0.4c0,0-0.1,0-0.1,0c-1.3,0-2.6,0-4,0c-0.1,0-0.2,0-0.3,0
			c-0.2,0-0.2,0.1-0.3,0.2c0,0.1,0,0.2,0,0.4c0,6.4,0,12.8,0,19.2c0,0.1,0,0.2,0,0.3c0,0.2,0.1,0.3,0.3,0.3c0.1,0,0.1,0,0.2,0
			c1.3,0,2.7,0,4,0c0.5,0,0.5,0,0.5-0.5c0-2.3,0-4.6,0-6.9c0-0.5,0-0.5,0.5-0.5c3.4,0,6.8,0,10.2,0c0.9,0,1.7,0.2,2.5,0.5
			c0.7,0.3,1.4,0.7,1.8,1.4c0.6,0.9,1,1.9,1,3c0,0.8,0,1.7,0,2.5c0,0.1,0,0.2,0,0.3c0,0.1,0.1,0.2,0.2,0.2c0.1,0,0.2,0,0.3,0
			c1.4,0,2.7,0,4.1,0c0.4,0,0.4,0,0.4-0.4c0-0.8,0-1.7,0-2.5c0-0.7-0.1-1.4-0.2-2.1c-0.3-1.8-1.1-3.3-2.3-4.6
			c-1.2-1.2-2.6-1.9-4.2-2.4C551.8,132.8,551.5,132.7,551.3,132.7z"/>
		<path class="st0" d="M416.6,117.2c-0.2,0-0.5,0-0.8,0c-0.9,0.1-1.6,0.6-2.2,1.2c-0.3,0.3-0.5,0.5-0.7,0.9c-0.4,1-0.9,1.9-1.3,2.9
			c-0.9,2.4-1.8,4.8-2.7,7.1c-0.4,1-0.8,1.9-1,3c-0.1,0.4-0.3,0.8-0.3,1.2c-0.1,1.2,0.2,2.3,1,3.2c0.4,0.4,0.7,0.9,1.3,1.1
			c0.3,0.1,0.5,0.2,0.8,0.3c0.4,0.1,0.8,0.2,1.2,0.1c0.4-0.1,0.9-0.1,1.3-0.3c0.8-0.4,1.6-0.9,2.1-1.7c0.2-0.3,0.3-0.6,0.5-0.9
			c0.6-1.4,1.1-2.9,1.7-4.4c0.8-2.1,1.6-4.2,2.4-6.3c0.2-0.5,0.4-1,0.6-1.5c0.2-0.7,0.3-1.5,0.3-2.3c-0.1-0.8-0.4-1.6-1-2.2
			c-0.6-0.7-1.3-1.2-2.2-1.3C417.2,117.2,416.9,117.2,416.6,117.2z"/>
		<path class="st0" d="M457.7,138.1c0-2,0-4.1,0-6.1c0-0.4,0-0.4-0.4-0.4c0,0,0,0,0,0c-1.4,0-2.7,0-4.1,0c-0.1,0-0.1,0-0.2,0
			c-0.2,0-0.3,0-0.3,0.3c0,0.1,0,0.2,0,0.2c0,0.8,0,1.7,0,2.5c0,3.2,0,6.4,0,9.6c0,0.4,0,0.4,0.4,0.4c0,0,0.1,0,0.1,0
			c1.3,0,2.6,0,3.9,0c0.5,0,0.5,0,0.5-0.5C457.7,142.1,457.7,140.1,457.7,138.1z"/>
		<path class="st1" d="M610.7,129.4c-2.7,0-5.4,0-8.1,0c-0.6,0-0.6,0-0.6,0.6c0,0.8,0,1.7,0,2.5c-0.1,1.8-0.1,3.6,0,5.4
			c0.1,2.1,0,4.3,0,6.4c0,0.8,0,0.7-0.7,0.7c-1.3,0-2.5,0-3.8,0c-0.1,0-0.2,0-0.3,0c-0.2,0-0.3-0.1-0.3-0.3c0-0.1,0-0.2,0-0.4
			c0-4.8,0-9.5,0-14.3c0-0.6,0-0.5-0.5-0.5c-2.6,0-5.2,0-7.8,0c-0.5,0-0.5,0-0.5-0.5c0-1.3,0-2.6,0-3.9c0-0.1,0-0.2,0-0.2
			c0-0.2,0.1-0.2,0.2-0.3c0.1,0,0.3,0,0.4,0c7.3,0,14.7,0,22,0C610.7,126.1,610.7,127.8,610.7,129.4z"/>
		<path class="st0" d="M389.3,135.4c0.1,0.1,0.1,0.3,0.1,0.5c0.3,3.2,1.2,6.2,2.8,9c0.8,1.4,1.6,2.6,2.6,3.8
			c1.1,1.2,2.2,2.3,3.5,3.3c1.7,1.2,3.5,2.2,5.4,3c1.6,0.6,3.3,1,5,1.3c0.5,0.1,1,0.1,1.5,0.2c0.1,0,0.2,0,0.3,0.1
			c-7.1,0-14.1,0-21.2,0C389.3,149.5,389.3,142.4,389.3,135.4z"/>
		<path class="st1" d="M574.3,124.5c4.1,0,8.2,0,12.3,0c0.6,0,0.6,0,0.6,0.5c0,1.3,0,2.5,0,3.8c0,0.5,0,0.5-0.5,0.5
			c-6.5,0-13.1,0-19.6,0c-0.7,0-0.6,0-0.7,0.6c-0.1,0.7,0.1,1.4,0,2.1c0,0.2,0,0.2,0.3,0.3c0.1,0,0.2,0,0.3,0c5.5,0,11,0,16.4,0
			c0.6,0,0.6,0,0.6,0.6c0,1.2,0,2.4,0,3.5c0,0.5,0,0.5-0.5,0.5c-5.4,0-10.9,0-16.3,0c-0.6,0-0.6,0-0.4,0.6c0.6,1.5,1.8,2.2,3.3,2.4
			c1.1,0.1,2.1,0,3.2,0.1c2.5,0.1,5,0.1,7.5,0c1.8,0,3.6,0,5.5,0c0.2,0,0.4,0,0.6,0c0.2,0,0.2,0.1,0.2,0.3c0,0.1,0,0.2,0,0.3
			c0,1.3,0,2.5,0,3.8c0,0,0,0.1,0,0.1c0,0.4,0,0.4-0.5,0.4c-4.5,0-8.9,0-13.4,0c-0.7,0-1.4,0-2.1,0c-2-0.1-3.9-0.5-5.6-1.6
			c-1.5-0.9-2.5-2.2-3.2-3.8c-0.5-1.1-0.8-2.3-0.9-3.6c0-0.4-0.1-0.9-0.1-1.3c0-3.2,0-6.4,0-9.6c0-0.6,0-0.6,0.6-0.6
			C566,124.5,570.2,124.5,574.3,124.5z"/>
		<path class="st2" d="M522.7,137c0,0.1,0.1,0.2,0.2,0.3c1,1.1,2.1,2.1,3.1,3.2c1.3,1.3,2.6,2.7,3.9,4c0.1,0.1,0.3,0.2,0.2,0.3
			c-0.1,0.1-0.2,0.1-0.4,0.1c-1.7,0-3.4,0-5,0c-0.3,0-0.5-0.1-0.7-0.3c-2.4-2.4-4.8-4.8-7.2-7.3c-0.2-0.2-0.4-0.3-0.8-0.3
			c-1.7,0-3.3,0-5,0c-0.1,0-0.2,0-0.3,0c-0.4,0-0.4,0-0.4-0.4c0-1.3,0-2.6,0-3.8c0,0,0-0.1,0-0.1c0-0.2,0.1-0.3,0.3-0.3
			c0.1,0,0.2,0,0.3,0c3.6,0,7.2,0,10.9,0c0.7,0,1.4-0.1,2-0.5c0.8-0.5,1.3-1.3,1.4-2.2c0-0.2,0-0.3-0.2-0.3c-0.1,0-0.2,0-0.3,0
			c-4.5,0-9,0-13.5,0c-0.9,0-1.7,0-2.6,0c-0.1,0-0.2,0-0.3,0c-0.1,0-0.2,0.1-0.2,0.2c0,0.1,0,0.2,0,0.4c0,4.8,0,9.6,0,14.4
			c0,0.7,0,0.7-0.7,0.7c-1.2,0-2.4,0-3.7,0c-0.1,0-0.2,0-0.3,0c-0.3,0-0.4,0-0.4-0.4c0-0.1,0-0.1,0-0.2c0-6.4,0-12.8,0-19.2
			c0-0.6,0-0.6,0.6-0.6c8.6,0,17.2,0,25.8,0c0.6,0,0.6,0,0.6,0.6c0,1.3,0,2.5,0,3.8c0,1.2-0.2,2.3-0.6,3.4c-0.7,1.8-1.9,3.1-3.6,3.8
			c-0.9,0.4-1.8,0.6-2.7,0.8C523,137,522.9,137,522.7,137z"/>
		<path class="st1" d="M473.6,134.4c0-3.2,0-6.4,0-9.6c0-0.5,0-0.5,0.5-0.5c5.4,0,10.8,0,16.1,0c2.1,0,4.1,0.6,5.9,1.7
			c1.1,0.7,1.9,1.6,2.5,2.7c0.7,1.3,1.1,2.7,1.3,4.2c0.1,0.4,0.1,0.9,0.1,1.3c0,3.3,0,6.6,0,9.9c0,0.5,0,0.5-0.5,0.5
			c-1.3,0-2.6,0-3.9,0c-0.1,0-0.2,0-0.3,0c-0.1,0-0.2-0.1-0.2-0.2c0-0.1,0-0.2,0-0.3c0-1.9,0-3.8,0-5.7c0-0.4,0-0.8,0-1.2
			c0-0.2,0-0.3-0.3-0.3c-0.1,0-0.2,0-0.3,0c-5.1,0-10.2,0-15.4,0c-0.5,0-0.5,0-0.5,0.5c0,2.2,0,4.5,0,6.7c0,0.5,0,0.5-0.5,0.5
			c-1.3,0-2.6,0-4,0c-0.5,0-0.5,0-0.5-0.5C473.6,140.9,473.6,137.7,473.6,134.4z M486.6,132.2c2.5,0,5.1,0,7.6,0c0.1,0,0.2,0,0.3,0
			c0.2,0,0.2,0,0.2-0.2c-0.1-0.4-0.3-0.9-0.6-1.2c-0.4-0.6-1-0.9-1.7-1.2c-1-0.4-2-0.5-3-0.5c-1.4,0-2.7,0-4.1,0c-2.1,0-4.1,0-6.2,0
			c-0.4,0-0.4,0-0.4,0.4c0,0.7,0,1.5,0,2.2c0,0.5,0,0.5,0.5,0.5C481.6,132.2,484.1,132.2,486.6,132.2z"/>
		<path class="st1" d="M551.3,132.7c0.2,0.1,0.5,0.1,0.7,0.2c1.6,0.4,3,1.2,4.2,2.4c1.3,1.3,2,2.8,2.3,4.6c0.1,0.7,0.2,1.4,0.2,2.1
			c0,0.8,0,1.7,0,2.5c0,0.4,0,0.4-0.4,0.4c-1.4,0-2.7,0-4.1,0c-0.1,0-0.2,0-0.3,0c-0.1,0-0.2-0.1-0.2-0.2c0-0.1,0-0.2,0-0.3
			c0-0.8,0-1.7,0-2.5c0-1.1-0.4-2.1-1-3c-0.5-0.6-1.1-1.1-1.8-1.4c-0.8-0.3-1.6-0.5-2.5-0.5c-3.4,0-6.8,0-10.2,0
			c-0.5,0-0.5,0-0.5,0.5c0,2.3,0,4.6,0,6.9c0,0.5,0,0.5-0.5,0.5c-1.3,0-2.7,0-4,0c-0.1,0-0.1,0-0.2,0c-0.3,0-0.3,0-0.3-0.3
			c0-0.1,0-0.2,0-0.3c0-6.4,0-12.8,0-19.2c0-0.1,0-0.2,0-0.4c0-0.2,0.1-0.2,0.3-0.2c0.1,0,0.2,0,0.3,0c1.3,0,2.6,0,4,0
			c0,0,0.1,0,0.1,0c0.4,0,0.4,0,0.4,0.4c0,2.3,0,4.5,0,6.8c0,0.1,0,0.2,0,0.4c0,0.1,0.1,0.2,0.2,0.2c0.1,0,0.2,0,0.3,0
			c2.2,0,4.5,0,6.7,0c0.3,0,0.5-0.1,0.7-0.3c1.5-1.7,2.9-3.3,4.4-5c0.7-0.8,1.4-1.5,2-2.3c0.1-0.2,0.3-0.2,0.5-0.2
			c1.8,0,3.6,0,5.4,0c0,0,0.1,0,0.1,0c0.1,0,0.1,0,0.2,0.1c0.1,0.1,0,0.1-0.1,0.2c-0.3,0.3-0.5,0.6-0.8,0.9
			c-1.1,1.2-2.2,2.4-3.2,3.6c-0.9,1.1-1.9,2.1-2.8,3.2C551.4,132.5,551.3,132.6,551.3,132.7z"/>
		<g>
			<path class="st1" d="M389.3,132.5c0.2-0.4,0.1-0.7,0.2-1.1c0.3-2.4,0.9-4.8,2-7c0.9-2,2.2-3.8,3.6-5.5c1.1-1.2,2.3-2.3,3.6-3.2
				c2-1.4,4.2-2.5,6.5-3.2c0.6-0.2,1.2-0.3,1.7-0.5c0.8-0.2,1.6-0.1,2.4,0.2c1.5,0.6,2.3,1.8,2.5,3.3c0.1,0.3,0,0.6,0,0.9
				c-0.2,0.8-0.5,1.6-1,2.2c-0.5,0.6-1.2,1-1.9,1.2c-0.6,0.2-1.1,0.4-1.7,0.5c-1.8,0.5-3.3,1.4-4.7,2.6c-0.2,0.2-0.5,0.4-0.8,0.6
				c-1.5,1.6-2.8,3.3-3.5,5.4c-0.4,1.1-0.6,2.3-0.8,3.5c-0.1,0.6-0.1,1.3-0.1,1.9c0.2,3.1,1.1,5.9,3.1,8.4c0.3,0.4,0.6,0.8,0.9,1.1
				c2.2,2.1,4.6,3.6,7.6,4.1c0.9,0.1,1.7,0.2,2.6,0.3c0.5,0,1.1-0.1,1.6-0.1c1.3-0.1,2.7-0.4,3.9-1c1.3-0.5,2.5-1.3,3.5-2.2
				c0.4-0.3,0.8-0.6,1.2-1c1.9-2.1,3.3-4.4,3.8-7.2c0.2-1,0.3-2,0.3-3c-0.1-2.2-0.5-4.4-1.6-6.4c-0.3-0.6-0.7-1.1-1-1.7
				c-0.3-0.5-0.5-1-0.6-1.5c-0.2-0.7-0.1-1.5,0.2-2.2c0.2-0.6,0.5-1.1,1-1.6c1-1,2.1-1.3,3.4-1.2c0.9,0.1,1.7,0.5,2.4,1.1
				c0.6,0.6,1,1.3,1.4,2c1.4,2.4,2.4,4.9,2.9,7.6c0.3,1.7,0.5,3.5,0.4,5.2c-0.2,2.9-0.8,5.7-2.1,8.3c-0.9,2-2.1,3.8-3.6,5.5
				c-1.1,1.3-2.4,2.5-3.8,3.4c-1.9,1.3-4,2.4-6.2,3.1c-1.4,0.4-2.8,0.7-4.3,0.9c-0.4,0.1-0.8,0-1.2,0.2c-0.9,0-1.8,0-2.7,0
				c-0.1,0-0.2-0.1-0.3-0.1c-0.5-0.1-1-0.1-1.5-0.2c-1.7-0.2-3.4-0.7-5-1.3c-1.9-0.7-3.7-1.8-5.4-3c-1.3-1-2.5-2.1-3.5-3.3
				c-1-1.2-1.9-2.4-2.6-3.8c-1.6-2.8-2.5-5.8-2.8-9c0-0.2,0-0.3-0.1-0.5C389.3,134.4,389.3,133.4,389.3,132.5z"/>
			<path class="st2" d="M421.3,105.5c0.5,0.1,0.9,0.2,1.4,0.5c0.8,0.4,1.3,0.9,1.7,1.7c0.3,0.7,0.6,1.4,0.5,2.2
				c-0.1,1.5-0.7,2.6-2,3.4c-0.7,0.4-1.5,0.7-2.3,0.7c-2.1-0.1-3.8-1.6-4-3.6c-0.2-2,0.9-3.8,2.5-4.5c0.3-0.1,0.6-0.2,0.9-0.3
				C420.5,105.5,420.9,105.5,421.3,105.5z"/>
			<path class="st2" d="M416.6,117.2c0.3,0,0.5,0,0.8,0c0.9,0.1,1.6,0.7,2.2,1.3c0.6,0.6,0.9,1.3,1,2.2c0.1,0.8,0,1.5-0.3,2.3
				c-0.2,0.5-0.4,1-0.6,1.5c-0.8,2.1-1.6,4.2-2.4,6.3c-0.6,1.5-1.1,2.9-1.7,4.4c-0.1,0.3-0.3,0.6-0.5,0.9c-0.5,0.8-1.2,1.3-2.1,1.7
				c-0.4,0.2-0.9,0.2-1.3,0.3c-0.4,0.1-0.8,0-1.2-0.1c-0.3-0.1-0.5-0.2-0.8-0.3c-0.6-0.2-0.9-0.6-1.3-1.1c-0.8-0.9-1-2-1-3.2
				c0-0.4,0.2-0.8,0.3-1.2c0.3-1,0.7-2,1-3c1-2.4,1.8-4.7,2.7-7.1c0.4-1,0.8-2,1.3-2.9c0.2-0.4,0.4-0.6,0.7-0.9
				c0.6-0.6,1.3-1.1,2.2-1.2C416.1,117.2,416.4,117.2,416.6,117.2z"/>
		</g>
		<g>
			<path class="st1" d="M450.8,124.2c3.1,0,6.3,0,9.4,0c1.5,0,3,0.3,4.4,0.7c1.1,0.4,2.1,0.9,2.9,1.6c1,0.8,1.8,1.9,2.3,3.1
				c0.6,1.4,0.9,2.8,0.9,4.3c0,3.4,0,6.7,0,10.1c0,0.6,0,0.6-0.6,0.6c-1.3,0-2.6,0-3.9,0c-0.1,0-0.2,0-0.2,0c-0.3,0-0.3,0-0.3-0.3
				c0-0.6,0-1.3,0-1.9c0-2.4,0-4.8,0-7.2c0-0.8,0-1.6-0.1-2.3c-0.1-0.9-0.5-1.7-1.2-2.4c-0.3-0.3-0.7-0.5-1.1-0.7
				c-0.6-0.2-1.1-0.4-1.7-0.5c-0.2,0-0.3,0-0.5,0c-0.6,0-1.2,0-1.8,0c-4.6-0.1-9.2,0-13.8-0.1c-0.1,0-0.2,0-0.2,0
				c-0.1,0-0.2,0.1-0.2,0.2c0,0.1,0,0.2,0,0.3c0,2.9,0,5.7,0,8.6c0,2,0,4,0,5.9c0,0.1,0,0.1,0,0.2c0,0.1-0.1,0.2-0.2,0.2
				c-0.1,0-0.2,0-0.2,0c-1.3,0-2.7,0-4,0c-0.5,0-0.5,0-0.5-0.5c0-6.5,0-13,0-19.4c0-0.1,0-0.1,0-0.2c0-0.2,0.1-0.3,0.3-0.3
				c0.1,0,0.2,0,0.3,0C444.2,124.2,447.5,124.2,450.8,124.2z"/>
			<path class="st1" d="M457.7,138.1c0,2,0,4,0,6c0,0.5,0,0.5-0.5,0.5c-1.3,0-2.6,0-3.9,0c0,0-0.1,0-0.1,0c-0.4,0-0.4,0-0.4-0.4
				c0-3.2,0-6.4,0-9.6c0-0.8,0-1.7,0-2.5c0-0.1,0-0.2,0-0.2c0-0.2,0-0.3,0.3-0.3c0.1,0,0.1,0,0.2,0c1.4,0,2.7,0,4.1,0c0,0,0,0,0,0
				c0.4,0,0.4,0,0.4,0.4C457.7,134,457.7,136.1,457.7,138.1z"/>
		</g>
		<path class="st0" d="M486.6,132.2c-2.5,0-5,0-7.5,0c-0.5,0-0.5,0-0.5-0.5c0-0.7,0-1.5,0-2.2c0-0.4,0-0.4,0.4-0.4
			c2.1,0,4.1,0,6.2,0c1.4,0,2.7,0,4.1,0c1,0,2.1,0.1,3,0.5c0.7,0.2,1.3,0.6,1.7,1.2c0.3,0.4,0.5,0.8,0.6,1.2c0,0.2,0,0.2-0.2,0.2
			c-0.1,0-0.2,0-0.3,0C491.7,132.2,489.1,132.2,486.6,132.2z"/>
	</g>
	<g>
		<path class="st1" d="M448.4,163c-0.4,0.7-1,1.3-1.8,1.7c-0.8,0.4-1.7,0.6-2.8,0.6h-3.5v-9.8h3.5c1.1,0,2,0.2,2.8,0.6
			c0.8,0.4,1.4,1,1.8,1.7c0.4,0.7,0.6,1.6,0.6,2.6C449,161.4,448.8,162.3,448.4,163z M446.1,162.8c0.6-0.6,0.9-1.3,0.9-2.3
			c0-1-0.3-1.8-0.9-2.4c-0.6-0.6-1.4-0.8-2.5-0.8h-1.4v6.4h1.4C444.7,163.6,445.5,163.3,446.1,162.8z"/>
		<path class="st1" d="M452.4,155.5v9.8h-2v-9.8H452.4z"/>
		<path class="st1" d="M461.7,156.3c0.8,0.6,1.3,1.4,1.5,2.4h-2.1c-0.2-0.4-0.5-0.8-0.9-1.1c-0.4-0.3-0.9-0.4-1.5-0.4
			c-0.6,0-1.1,0.1-1.5,0.4c-0.4,0.3-0.8,0.6-1,1.1c-0.2,0.5-0.4,1-0.4,1.7c0,1,0.3,1.8,0.8,2.4c0.6,0.6,1.3,0.9,2.3,0.9
			c0.7,0,1.3-0.2,1.8-0.6c0.5-0.4,0.8-1,1-1.7h-3.3V160h5v1.9c-0.1,0.6-0.4,1.2-0.8,1.8c-0.4,0.5-0.9,1-1.6,1.3
			c-0.7,0.3-1.4,0.5-2.2,0.5c-1,0-1.8-0.2-2.6-0.6c-0.7-0.4-1.3-1-1.7-1.8c-0.4-0.8-0.6-1.6-0.6-2.6c0-1,0.2-1.8,0.6-2.6
			c0.4-0.8,1-1.3,1.7-1.8c0.7-0.4,1.6-0.6,2.5-0.6C459.9,155.4,460.9,155.7,461.7,156.3z"/>
		<path class="st1" d="M466.8,155.5v9.8h-2v-9.8H466.8z"/>
		<path class="st1" d="M475.3,155.5v1.6h-2.7v8.3h-2v-8.3h-2.7v-1.6H475.3z"/>
		<path class="st1" d="M478.4,155.5v9.8h-2v-9.8H478.4z"/>
		<path class="st1" d="M482,163.8h4.6v1.6h-6.8v-1.5l4.5-6.8h-4.4v-1.6h6.6v1.5L482,163.8z"/>
		<path class="st1" d="M490.1,157.1v2.5h3.5v1.5h-3.5v2.6h3.9v1.6h-5.9v-9.8h5.9v1.6L490.1,157.1L490.1,157.1z"/>
		<path class="st1" d="M506.4,155.5l-3.3,6.4v3.4h-2v-3.4l-3.3-6.4h2.3l2.1,4.3l2.1-4.3H506.4L506.4,155.5z"/>
		<path class="st1" d="M514.6,156c0.7,0.4,1.3,1,1.8,1.8c0.4,0.8,0.6,1.6,0.6,2.6c0,1-0.2,1.8-0.6,2.6c-0.4,0.8-1,1.4-1.8,1.8
			c-0.7,0.4-1.6,0.6-2.5,0.6c-0.9,0-1.8-0.2-2.5-0.6c-0.7-0.4-1.3-1-1.8-1.8c-0.4-0.8-0.6-1.6-0.6-2.6c0-1,0.2-1.8,0.6-2.6
			c0.4-0.8,1-1.4,1.8-1.8c0.7-0.4,1.6-0.6,2.5-0.6C513,155.4,513.8,155.6,514.6,156z M510.5,157.6c-0.4,0.3-0.8,0.6-1,1.1
			c-0.2,0.5-0.4,1.1-0.4,1.7s0.1,1.2,0.4,1.7c0.2,0.5,0.6,0.9,1,1.1c0.4,0.3,0.9,0.4,1.5,0.4c0.6,0,1.1-0.1,1.5-0.4
			c0.4-0.3,0.8-0.6,1-1.1c0.2-0.5,0.4-1.1,0.4-1.7c0-0.6-0.1-1.2-0.4-1.7c-0.2-0.5-0.6-0.9-1-1.1c-0.4-0.3-0.9-0.4-1.5-0.4
			C511.5,157.2,511,157.3,510.5,157.6z"/>
		<path class="st1" d="M520.3,155.5v5.8c0,0.8,0.2,1.3,0.5,1.7c0.3,0.4,0.8,0.6,1.5,0.6c0.6,0,1.1-0.2,1.5-0.6
			c0.3-0.4,0.5-1,0.5-1.7v-5.8h1.9v5.8c0,0.9-0.2,1.7-0.5,2.3c-0.3,0.6-0.8,1.1-1.4,1.4s-1.3,0.5-2,0.5c-1.2,0-2.1-0.4-2.8-1.1
			c-0.7-0.7-1.1-1.7-1.1-3.1v-5.8H520.3L520.3,155.5z"/>
		<path class="st1" d="M533.1,165.4l-2.3-3.8h-0.9v3.8h-2v-9.8h3.7c1.1,0,2,0.3,2.6,0.8c0.6,0.6,0.9,1.3,0.9,2.2
			c0,0.7-0.2,1.4-0.6,1.9c-0.4,0.5-1,0.8-1.8,1l2.5,3.9H533.1z M529.9,160.2h1.6c1.1,0,1.7-0.5,1.7-1.5c0-0.5-0.1-0.8-0.4-1.1
			c-0.3-0.3-0.7-0.4-1.3-0.4h-1.6V160.2z"/>
		<path class="st1" d="M546.5,161.1c0.4,0.4,0.5,1,0.5,1.6c0,0.8-0.3,1.5-0.8,2c-0.6,0.5-1.4,0.7-2.4,0.7h-4.2v-9.8h4.1
			c1,0,1.8,0.2,2.3,0.7c0.5,0.4,0.8,1,0.8,1.8c0,0.6-0.2,1.1-0.5,1.5c-0.3,0.4-0.7,0.6-1.3,0.8C545.7,160.4,546.1,160.7,546.5,161.1
			z M541.5,159.7h1.8c0.5,0,0.9-0.1,1.1-0.3c0.3-0.2,0.4-0.5,0.4-0.9c0-0.4-0.1-0.7-0.4-0.9c-0.3-0.2-0.6-0.3-1.2-0.3h-1.7
			L541.5,159.7L541.5,159.7z M544.6,163.4c0.3-0.2,0.4-0.6,0.4-1c0-0.4-0.1-0.8-0.4-1c-0.3-0.2-0.7-0.4-1.2-0.4h-1.9v2.7h1.9
			C543.9,163.8,544.3,163.7,544.6,163.4z"/>
		<path class="st1" d="M550.3,155.5v5.8c0,0.8,0.2,1.3,0.5,1.7c0.3,0.4,0.8,0.6,1.5,0.6c0.6,0,1.1-0.2,1.5-0.6
			c0.3-0.4,0.5-1,0.5-1.7v-5.8h1.9v5.8c0,0.9-0.2,1.7-0.5,2.3c-0.3,0.6-0.8,1.1-1.4,1.4s-1.3,0.5-2,0.5c-1.2,0-2.1-0.4-2.8-1.1
			c-0.7-0.7-1.1-1.7-1.1-3.1v-5.8H550.3L550.3,155.5z"/>
		<path class="st1" d="M564.3,164.1c-0.3,0.4-0.6,0.8-1.1,1c-0.5,0.3-1.1,0.4-1.8,0.4c-0.7,0-1.3-0.1-1.9-0.4c-0.5-0.2-1-0.6-1.3-1
			c-0.3-0.4-0.5-1-0.6-1.6h2.1c0,0.4,0.2,0.7,0.5,1c0.3,0.3,0.6,0.4,1.1,0.4c0.4,0,0.7-0.1,0.9-0.3c0.2-0.2,0.3-0.5,0.3-0.8
			c0-0.3-0.1-0.6-0.3-0.8c-0.2-0.2-0.4-0.4-0.7-0.5c-0.3-0.1-0.6-0.3-1.1-0.4c-0.6-0.2-1.1-0.4-1.5-0.6c-0.4-0.2-0.7-0.5-1-0.9
			c-0.3-0.4-0.4-0.9-0.4-1.5c0-0.8,0.3-1.5,0.9-2c0.6-0.5,1.4-0.7,2.4-0.7c1,0,1.9,0.3,2.5,0.8c0.6,0.5,1,1.2,1.1,2h-2.1
			c-0.1-0.4-0.2-0.6-0.4-0.9c-0.2-0.2-0.6-0.3-1-0.3c-0.4,0-0.7,0.1-0.9,0.3c-0.2,0.2-0.3,0.5-0.3,0.8c0,0.3,0.1,0.5,0.3,0.7
			c0.2,0.2,0.4,0.3,0.7,0.5c0.3,0.1,0.6,0.3,1.1,0.4c0.6,0.2,1.1,0.4,1.5,0.6c0.4,0.2,0.7,0.5,1,0.9c0.3,0.4,0.4,0.9,0.4,1.5
			C564.7,163.2,564.5,163.7,564.3,164.1z"/>
		<path class="st1" d="M568.1,155.5v9.8h-2v-9.8H568.1z"/>
		<path class="st1" d="M578.2,165.4h-2l-4.4-6.7v6.7h-2v-9.8h2l4.4,6.7v-6.7h2V165.4z"/>
		<path class="st1" d="M581.9,157.1v2.5h3.5v1.5h-3.5v2.6h3.9v1.6H580v-9.8h5.9v1.6L581.9,157.1L581.9,157.1z"/>
		<path class="st1" d="M593.7,164.1c-0.3,0.4-0.6,0.8-1.1,1c-0.5,0.3-1.1,0.4-1.8,0.4c-0.7,0-1.3-0.1-1.9-0.4c-0.5-0.2-1-0.6-1.3-1
			c-0.3-0.4-0.5-1-0.6-1.6h2.1c0,0.4,0.2,0.7,0.5,1c0.3,0.3,0.6,0.4,1.1,0.4c0.4,0,0.7-0.1,0.9-0.3c0.2-0.2,0.3-0.5,0.3-0.8
			c0-0.3-0.1-0.6-0.3-0.8c-0.2-0.2-0.4-0.4-0.7-0.5c-0.3-0.1-0.6-0.3-1.1-0.4c-0.6-0.2-1.1-0.4-1.5-0.6c-0.4-0.2-0.7-0.5-1-0.9
			c-0.3-0.4-0.4-0.9-0.4-1.5c0-0.8,0.3-1.5,0.9-2c0.6-0.5,1.4-0.7,2.4-0.7c1,0,1.9,0.3,2.5,0.8c0.6,0.5,1,1.2,1.1,2h-2.1
			c-0.1-0.4-0.2-0.6-0.4-0.9c-0.2-0.2-0.6-0.3-1-0.3c-0.4,0-0.7,0.1-0.9,0.3c-0.2,0.2-0.3,0.5-0.3,0.8c0,0.3,0.1,0.5,0.3,0.7
			c0.2,0.2,0.4,0.3,0.7,0.5c0.3,0.1,0.6,0.3,1.1,0.4c0.6,0.2,1.1,0.4,1.5,0.6c0.4,0.2,0.7,0.5,1,0.9c0.3,0.4,0.4,0.9,0.4,1.5
			C594,163.2,593.9,163.7,593.7,164.1z"/>
		<path class="st1" d="M601.9,164.1c-0.3,0.4-0.6,0.8-1.1,1c-0.5,0.3-1.1,0.4-1.8,0.4c-0.7,0-1.3-0.1-1.9-0.4c-0.5-0.2-1-0.6-1.3-1
			c-0.3-0.4-0.5-1-0.6-1.6h2.1c0,0.4,0.2,0.7,0.5,1c0.3,0.3,0.6,0.4,1.1,0.4c0.4,0,0.7-0.1,0.9-0.3c0.2-0.2,0.3-0.5,0.3-0.8
			c0-0.3-0.1-0.6-0.3-0.8c-0.2-0.2-0.4-0.4-0.7-0.5c-0.3-0.1-0.6-0.3-1.1-0.4c-0.6-0.2-1.1-0.4-1.5-0.6c-0.4-0.2-0.7-0.5-1-0.9
			c-0.3-0.4-0.4-0.9-0.4-1.5c0-0.8,0.3-1.5,0.9-2c0.6-0.5,1.4-0.7,2.4-0.7c1,0,1.9,0.3,2.5,0.8c0.6,0.5,1,1.2,1.1,2h-2.1
			c-0.1-0.4-0.2-0.6-0.4-0.9c-0.2-0.2-0.6-0.3-1-0.3c-0.4,0-0.7,0.1-0.9,0.3c-0.2,0.2-0.3,0.5-0.3,0.8c0,0.3,0.1,0.5,0.3,0.7
			c0.2,0.2,0.4,0.3,0.7,0.5c0.3,0.1,0.6,0.3,1.1,0.4c0.6,0.2,1.1,0.4,1.5,0.6c0.4,0.2,0.7,0.5,1,0.9c0.3,0.4,0.4,0.9,0.4,1.5
			C602.2,163.2,602.1,163.7,601.9,164.1z"/>
	</g>
</g>
</svg>
